<svg xmlns="http://www.w3.org/2000/svg" width="38.25" height="38.25" viewBox="0 0 38.25 38.25"><defs><style>.a{fill:#16a085;}</style></defs><path class="a" d="M32.687,20.7H24.3V12.313a1.8,1.8,0,1,0-3.6,0V20.7H12.313a1.725,1.725,0,0,0-1.8,1.8,1.743,1.743,0,0,0,1.8,1.8H20.7v8.386a1.745,1.745,0,0,0,1.8,1.8,1.792,1.792,0,0,0,1.8-1.8V24.3h8.386a1.8,1.8,0,0,0,0-3.6Z" transform="translate(-3.375 -3.375)"/><path class="a" d="M22.5,5.95A16.544,16.544,0,1,1,10.8,10.8,16.441,16.441,0,0,1,22.5,5.95m0-2.575A19.125,19.125,0,1,0,41.625,22.5,19.122,19.122,0,0,0,22.5,3.375Z" transform="translate(-3.375 -3.375)"/></svg>