<svg xmlns="http://www.w3.org/2000/svg" width="21.25" height="21.25" viewBox="0 0 21.25 21.25"><defs><style>.a{fill:#3498db;}</style></defs><path class="a" d="M16.964,13.476h-2.44v-2.44a.524.524,0,0,0-1.048,0v2.44h-2.44a.5.5,0,0,0-.524.524.507.507,0,0,0,.524.524h2.44v2.44a.508.508,0,0,0,.524.524.521.521,0,0,0,.524-.524v-2.44h2.44a.524.524,0,0,0,0-1.048Z" transform="translate(-3.375 -3.375)"/><path class="a" d="M14,4.805A9.191,9.191,0,1,1,7.5,7.5,9.134,9.134,0,0,1,14,4.805m0-1.43A10.625,10.625,0,1,0,24.625,14,10.623,10.623,0,0,0,14,3.375Z" transform="translate(-3.375 -3.375)"/></svg>