<svg xmlns="http://www.w3.org/2000/svg" width="40.5" height="31.5" viewBox="0 0 40.5 31.5"><defs><style>.a{fill:none;}.b,.c{stroke:none;}.c{fill:#16a085;}</style></defs><g class="a" transform="translate(0 -2.25)"><path class="b" d="M29.25,13.5c0-6.216-6.546-11.25-14.625-11.25S0,7.284,0,13.5a9.539,9.539,0,0,0,2.672,6.469A15.826,15.826,0,0,1,.155,23.8a.559.559,0,0,0-.105.612.551.551,0,0,0,.513.337A12.38,12.38,0,0,0,6.8,22.992a17.891,17.891,0,0,0,7.826,1.758C22.7,24.75,29.25,19.716,29.25,13.5Zm8.578,15.469A9.526,9.526,0,0,0,40.5,22.5c0-4.7-3.762-8.733-9.091-10.413A10.449,10.449,0,0,1,31.5,13.5c0,7.446-7.573,13.5-16.875,13.5a21.081,21.081,0,0,1-2.229-.134c2.215,4.043,7.418,6.884,13.479,6.884A17.793,17.793,0,0,0,33.7,31.992a12.38,12.38,0,0,0,6.237,1.758.554.554,0,0,0,.513-.338.563.563,0,0,0-.105-.612A15.658,15.658,0,0,1,37.828,28.969Z"/><path class="c" d="M 14.62500190734863 5.25 C 11.3754825592041 5.25 8.352161407470703 6.198959350585938 6.111961364746094 7.922069549560547 C 4.105182647705078 9.465639114379883 3.000003814697266 11.44659042358398 3.000003814697266 13.5 C 3.000003814697266 15.47113037109375 4.024742126464844 17.00395011901855 4.884391784667969 17.94272994995117 L 6.210380554199219 19.39077949523926 L 5.927650451660156 20.02797508239746 L 6.673652648925781 19.59337997436523 L 8.113983154296875 20.29563903808594 C 10.06538200378418 21.24708938598633 12.31685256958008 21.75 14.62500190734863 21.75 C 17.87452125549316 21.75 20.89784240722656 20.80104064941406 23.13804244995117 19.07793045043945 C 25.14482116699219 17.53436088562012 26.25000190734863 15.55340957641602 26.25000190734863 13.5 C 26.25000190734863 11.44659042358398 25.14482116699219 9.465639114379883 23.13804244995117 7.922069549560547 C 20.89784240722656 6.198959350585938 17.87452125549316 5.25 14.62500190734863 5.25 M 34.11879348754883 16.72541046142578 C 32.63608551025391 22.91285705566406 26.97172927856445 27.8647575378418 19.68399238586426 29.4584789276123 C 21.54142379760742 30.30506896972656 23.66690826416016 30.75 25.87500190734863 30.75 C 28.19550323486328 30.75 30.44463157653809 30.24822998046875 32.37924957275391 29.2989501953125 L 33.8221435546875 28.59094047546387 L 34.57463455200195 29.02931976318359 L 34.28973388671875 28.38509941101074 L 35.61948394775391 26.93849945068359 C 36.47736358642578 26.00524139404297 37.5 24.47761917114258 37.5 22.5 C 37.5 20.56859016418457 36.52763366699219 19.07058906555176 35.71191024780273 18.15402030944824 C 35.24895858764648 17.63383102416992 34.71481704711914 17.15572547912598 34.11879348754883 16.72541046142578 M 14.62500190734863 2.25 C 22.70391273498535 2.25 29.25000190734863 7.284370422363281 29.25000190734863 13.5 C 29.25000190734863 19.71562957763672 22.70391273498535 24.75 14.62500190734863 24.75 C 11.74219131469727 24.75 9.063282012939453 24.09609031677246 6.799213409423828 22.99219131469727 C 5.266403198242188 23.88516044616699 3.135932922363281 24.75 0.5625038146972656 24.75 C 0.3375015258789063 24.75 0.1406211853027344 24.62343978881836 0.04921340942382813 24.41250038146973 C -0.04218673706054688 24.20156097412109 3.814697265625e-06 23.96249961853027 0.1546821594238281 23.80078125 C 0.17578125 23.77968978881836 1.729682922363281 22.09218978881836 2.671871185302734 19.96875 C 0.9914016723632813 18.13359069824219 3.814697265625e-06 15.91172027587891 3.814697265625e-06 13.5 C 3.814697265625e-06 7.284370422363281 6.546092987060547 2.25 14.62500190734863 2.25 Z M 31.40859222412109 12.08671951293945 C 36.73828125 13.76719093322754 40.5 17.79608917236328 40.5 22.5 C 40.5 24.91172027587891 39.50859069824219 27.14062118530273 37.82812118530273 28.96875 C 38.77031326293945 31.09922027587891 40.32422256469727 32.77968978881836 40.34531021118164 32.80078125 C 40.5 32.96952819824219 40.54219055175781 33.20859146118164 40.45078277587891 33.41249847412109 C 40.36640167236328 33.61640167236328 40.16250228881836 33.75 39.9375 33.75 C 37.36406326293945 33.75 35.23359298706055 32.88515090942383 33.70078277587891 31.99218940734863 C 31.43672180175781 33.10313034057617 28.7578125 33.75 25.87500190734863 33.75 C 19.81406211853027 33.75 14.61093139648438 30.90937042236328 12.39609146118164 26.86640930175781 C 13.12734222412109 26.94375038146973 13.86562156677246 27 14.62500190734863 27 C 23.92734146118164 27 31.50000190734863 20.94609069824219 31.50000190734863 13.5 C 31.50000190734863 13.02186965942383 31.47187232971191 12.55077934265137 31.40859222412109 12.08671951293945 Z"/></g></svg>