<svg xmlns="http://www.w3.org/2000/svg" width="25" height="31" viewBox="0 0 25 31"><defs><style>.a{fill:none;stroke-linecap:round;stroke-linejoin:round;}.b,.c{stroke:none;}.c{fill:#ff4c29;}</style></defs><g class="a" transform="translate(-7.5 -4.5)"><path class="b" d="M9.286,32.056A3.52,3.52,0,0,0,12.857,35.5H27.143a3.52,3.52,0,0,0,3.571-3.444V11.389H9.286ZM32.5,6.222H26.25L24.464,4.5H15.536L13.75,6.222H7.5V9.667h25Z"/><path class="c" d="M 27.14286041259766 32.5 C 27.46990966796875 32.5 27.71429061889648 32.26535034179688 27.71429061889648 32.05554962158203 L 27.71429061889648 14.38889026641846 L 12.28571033477783 14.38889026641846 L 12.28571033477783 32.05554962158203 C 12.28571033477783 32.26535034179688 12.53009033203125 32.5 12.85713958740234 32.5 L 27.14286041259766 32.5 M 27.14286041259766 35.5 L 12.85713958740234 35.5 C 10.89286041259766 35.5 9.285710334777832 33.95000076293945 9.285710334777832 32.05554962158203 L 9.285710334777832 11.38889026641846 L 30.71429061889648 11.38889026641846 L 30.71429061889648 32.05554962158203 C 30.71429061889648 33.95000076293945 29.10713958740234 35.5 27.14286041259766 35.5 Z M 32.5 9.666669845581055 L 7.5 9.666669845581055 L 7.5 6.222219944000244 L 13.75 6.222219944000244 L 15.53571033477783 4.5 L 24.46429061889648 4.5 L 26.25 6.222219944000244 L 32.5 6.222219944000244 L 32.5 9.666669845581055 Z"/></g></svg>