<svg xmlns="http://www.w3.org/2000/svg" width="34" height="30.222" viewBox="0 0 34 30.222"><defs><style>.a{fill:#ff4c29;}</style></defs><g transform="translate(0 0)"><path class="a" d="M13.79,14.544l1.494-9.917H7.513l-3.247,8.5a2.98,2.98,0,0,0-.153.944c0,2.085,2.172,3.778,4.856,3.778,2.474,0,4.52-1.443,4.82-3.306Zm7.323,3.306c2.682,0,4.856-1.692,4.856-3.778,0-.077-.006-.155-.009-.229L25,4.627H17.228l-.963,9.208c0,.077-.008.155-.008.236,0,2.085,2.174,3.778,4.856,3.778Zm9.444,1.976v7.469H11.669V19.837a7.948,7.948,0,0,1-2.7.468,7.788,7.788,0,0,1-1.079-.093V32.205a2.65,2.65,0,0,0,2.641,2.644H31.691a2.653,2.653,0,0,0,2.644-2.644V20.214a8.116,8.116,0,0,1-1.079.093A7.849,7.849,0,0,1,30.558,19.825Zm7.4-6.7-3.251-8.5H26.942l1.492,9.9c.291,1.87,2.337,3.321,4.822,3.321,2.682,0,4.856-1.692,4.856-3.778A3.033,3.033,0,0,0,37.962,13.127Z" transform="translate(-4.113 -4.627)"/></g></svg>