<svg xmlns="http://www.w3.org/2000/svg" width="19.27" height="35" viewBox="0 0 19.27 35"><defs><style>.a{fill:#ff4c29;}</style></defs><path class="a" d="M19.853,19.861c-4.3-1.147-5.679-2.333-5.679-4.181,0-2.119,1.912-3.6,5.111-3.6,3.369,0,4.619,1.653,4.732,4.083H28.2a7.7,7.7,0,0,0-6.076-7.408V4.5H16.446V8.7c-3.672.817-6.625,3.267-6.625,7.019,0,4.492,3.615,6.728,8.9,8.031,4.732,1.167,5.679,2.878,5.679,4.686,0,1.342-.928,3.481-5.111,3.481-3.9,0-5.433-1.789-5.641-4.083H9.48c.227,4.258,3.332,6.65,6.966,7.447V39.5h5.679V35.319c3.691-.719,6.625-2.917,6.625-6.9C28.75,22.894,24.15,21.008,19.853,19.861Z" transform="translate(-9.48 -4.5)"/></svg>