<?xml version="1.0" standalone="no"?>
<!DOCTYPE svg PUBLIC "-//W3C//DTD SVG 1.1//EN" "http://www.w3.org/Graphics/SVG/1.1/DTD/svg11.dtd">
<svg xmlns="http://www.w3.org/2000/svg">
<metadata>Copyright (C) 2021 by original authors @ fontello.com</metadata>
<defs>
<font id="fontello" horiz-adv-x="1000" >
<font-face font-family="fontello" font-weight="400" font-stretch="normal" units-per-em="1000" ascent="850" descent="-150" />
<missing-glyph horiz-adv-x="1000" />
<glyph glyph-name="down-open" unicode="&#xe800;" d="M564 422l-234-224q-18-18-40-18t-40 18l-234 224q-16 16-16 41t16 41q38 38 78 0l196-188 196 188q40 38 78 0 16-16 16-41t-16-41z" horiz-adv-x="580" />

<glyph glyph-name="left-open" unicode="&#xe801;" d="M242 626q14 16 39 16t41-16q38-36 0-80l-186-196 186-194q38-44 0-80-16-16-40-16t-40 16l-226 236q-16 16-16 38 0 24 16 40 206 214 226 236z" horiz-adv-x="341" />

<glyph glyph-name="right-open" unicode="&#xe802;" d="M98 626l226-236q16-16 16-40 0-22-16-38l-226-236q-16-16-40-16t-40 16q-36 36 0 80l186 194-186 196q-36 44 0 80 16 16 41 16t39-16z" horiz-adv-x="340" />

<glyph glyph-name="up-open" unicode="&#xe803;" d="M564 280q16-16 16-41t-16-41q-38-38-78 0l-196 188-196-188q-40-38-78 0-16 16-16 41t16 41l234 224q16 16 40 16t40-16z" horiz-adv-x="580" />

<glyph glyph-name="star" unicode="&#xe804;" d="M929 489q0-12-15-27l-202-197 48-279q0-4 0-12 0-11-6-19t-17-9q-10 0-22 7l-251 132-250-132q-12-7-23-7-11 0-17 9t-6 19q0 4 1 12l48 279-203 197q-14 15-14 27 0 21 31 26l280 40 126 254q11 23 27 23t28-23l125-254 280-40q32-5 32-26z" horiz-adv-x="928.6" />

<glyph glyph-name="star-empty" unicode="&#xe805;" d="M635 290l170 166-235 34-106 213-105-213-236-34 171-166-41-235 211 111 211-111z m294 199q0-12-15-27l-202-197 48-279q0-4 0-12 0-28-23-28-10 0-22 7l-251 132-250-132q-12-7-23-7-11 0-17 9t-6 19q0 4 1 12l48 279-203 197q-14 15-14 27 0 21 31 26l280 40 126 254q11 23 27 23t28-23l125-254 280-40q32-5 32-26z" horiz-adv-x="928.6" />

<glyph glyph-name="Icon-material-payment" unicode="&#xe806;" d="M1125 829h-1000c0 0 0 0 0 0-69 0-124-55-124-124 0 0 0 0 0-1v0l-1-750c0 0 0 0 0 0 0-69 56-125 125-125 0 0 0 0 0 0h1000c0 0 0 0 0 0 69 0 125 56 125 125 0 0 0 0 0 0v0 750c0 0 0 0 0 1 0 68-56 124-125 124 0 0 0 0 0 0h0z m0-875h-1000v375h1000z m0 625h-1000v125h1000z" horiz-adv-x="1250" />

<glyph glyph-name="carticon" unicode="&#xe807;" d="M391 3c48 0 87-39 87-87s-39-87-87-87c-48 0-87 39-87 87v0c0 48 39 87 87 87v0z m479 0c48 0 87-39 87-87s-39-87-87-87c-48 0-87 39-87 87v0c0 48 39 87 87 87v0z m-25 87h-424c0 0-1 0-2 0-63 0-115 45-128 104l0 1-72 363q-1 2-1 4l-36 180h-138c-24 0-44 20-44 44s20 43 44 43v0h173c0 0 0 0 0 0 21 0 39-15 43-34l0-1 37-182h703c24 0 44-20 44-44 0-3-1-5-1-8l0 0-70-365v0c-12-60-65-105-128-105 0 0 0 0 0 0v0z m-424 87h424c0 0 0 0 0 0 21 0 39 15 43 35l0 0 59 313h-633l63-313c4-20 21-35 42-35 1 0 1 0 1 0l0 0z" horiz-adv-x="1043.9" />

<glyph glyph-name="heart-empty" unicode="&#xe808;" d="M929 517q0 46-12 80t-31 55-46 33-52 18-55 4-62-14-62-36-48-40-34-34q-10-13-27-13t-27 13q-14 15-34 34t-48 40-62 36-62 14-55-4-52-18-46-33-31-55-12-80q0-93 105-198l324-312 324 312q105 105 105 198z m71 0q0-123-128-251l-347-335q-10-10-25-10t-25 10l-348 336q-5 5-15 15t-31 37-38 54-30 67-13 77q0 123 71 192t196 70q34 0 70-12t67-33 54-38 42-38q20 20 42 38t54 38 67 33 70 12q125 0 196-70t71-192z" horiz-adv-x="1000" />

<glyph glyph-name="heart" unicode="&#xe809;" d="M500-79q-14 0-25 10l-348 336q-5 5-15 15t-31 37-38 54-30 67-13 77q0 123 71 192t196 70q34 0 70-12t67-33 54-38 42-38q20 20 42 38t54 38 67 33 70 12q125 0 196-70t71-192q0-123-128-251l-347-335q-10-10-25-10z" horiz-adv-x="1000" />

<glyph glyph-name="floppy" unicode="&#xe80a;" d="M214-7h429v214h-429v-214z m500 0h72v500q0 8-6 21t-11 20l-157 156q-5 6-19 12t-22 5v-232q0-22-15-38t-38-16h-322q-22 0-37 16t-16 38v232h-72v-714h72v232q0 22 16 38t37 16h465q22 0 38-16t15-38v-232z m-214 518v178q0 8-5 13t-13 5h-107q-7 0-13-5t-5-13v-178q0-7 5-13t13-5h107q7 0 13 5t5 13z m357-18v-518q0-22-15-38t-38-16h-750q-23 0-38 16t-16 38v750q0 22 16 38t38 16h517q23 0 50-12t42-26l156-157q16-15 27-42t11-49z" horiz-adv-x="857.1" />

<glyph glyph-name="add-blue" unicode="&#xe900;" d="M640 354h-115v115c0 13-11 24-25 24s-25-11-25-24v0-115h-114c-1 0-1 0-2 0-13 0-23-11-23-24 0 0 0 0 0-1l0 0c0 0 0 0 0-1 0-13 11-23 24-23 0 0 0 0 1 0l0 0h114v-115c0 0 0-1 0-1 0-13 11-24 24-24 1 0 1 0 1 0l0 0c0 0 0 0 0 0 14 0 25 11 25 25 0 0 0 0 0 0v0 115h115c13 0 24 11 24 24s-11 25-24 25v0z m-140 408c0 0 0 0 0 0 239 0 433-194 433-433s-194-432-433-432c-239 0-432 194-432 432 0 120 48 228 126 306l0 0c78 78 186 127 305 127 0 0 1 0 1 0h0z m0 67c-276 0-500-224-500-500s224-500 500-500c276 0 500 224 500 500v0c0 0 0 0 0 0 0 276-224 500-500 500 0 0 0 0 0 0h0z" horiz-adv-x="1000" />

<glyph glyph-name="add-green" unicode="&#xe901;" d="M766 376h-219v220c0 26-21 47-47 47s-47-21-47-47v-220h-219c-1 0-2 0-2 0-25 0-45-20-45-45 0 0 0-1 0-2l0 0c0 0 0-1 0-1 0-25 20-46 45-46 1 0 1 0 2 0l0 0h219v-219c0-1 0-1 0-2 0-25 20-45 46-45 0 0 1 0 1 0l0 0c0 0 0 0 0 0 26 0 47 21 47 47 0 0 0 0 0 0v0 219h219c26 0 47 21 47 47s-21 47-47 47v0z m-266 386c0 0 0 0 0 0 239 0 433-194 433-433s-194-432-433-432c-239 0-432 193-432 432 0 120 48 228 126 306l0 0c78 78 186 127 305 127 0 0 1 0 1 0h0z m0 67c-276 0-500-224-500-500s224-500 500-500c276 0 500 224 500 500v0c0 0 0 0 0 0 0 276-224 500-500 500 0 0 0 0 0 0h0z" horiz-adv-x="1000" />

<glyph glyph-name="lists" unicode="&#xe902;" d="M192 60h-153c-22 0-39-17-39-38v0-154c0-22 17-39 39-39v0h153c22 0 39 17 39 39v0 154c0 21-17 38-39 38v0z m0 769h-153c-22 0-39-17-39-38v0-154c0-21 17-39 39-39v0h153c22 0 39 18 39 39v0 154c0 21-17 38-39 38v0z m0-384h-153c-22 0-39-18-39-39v0-154c0-21 17-38 39-38v0h153c22 0 39 17 39 38v0 154c0 21-17 39-39 39v0z m1000-423h-769c-21 0-38-18-38-39v0-77c0-21 17-38 38-38v0h769c22 0 39 17 39 38v0 77c0 21-17 39-39 39v0z m0 769h-769c-21 0-38-17-38-39v0-77c0-21 17-38 38-38v0h769c22 0 39 17 39 38v0 77c0 22-17 39-39 39v0z m0-385h-769c-21 0-38-17-38-38v0-77c0-21 17-39 38-39v0h769c22 0 39 18 39 39v0 77c0 21-17 38-39 38v0z" horiz-adv-x="1230.5" />

<glyph glyph-name="Icon-awesome-comments" unicode="&#xe907;" d="M464 734c-103 0-199-30-270-85-64-49-99-112-99-177 0-63 33-111 60-141l42-46-9-20 24 14 46-23c62-30 133-46 206-46 103 0 199 30 271 85 63 49 98 112 98 177s-35 128-98 177c-72 55-168 85-271 85z m619-364c-47-197-227-354-458-405 59-27 126-41 196-41 74 0 146 16 207 46l46 23 24-14-9 20 42 46c27 30 60 79 60 141 0 62-31 109-57 138-15 17-32 32-51 46z m-619 459c257 0 465-160 465-357s-208-357-465-357c-91 0-176 21-248 56-49-29-116-56-198-56-7 0-13 4-16 11s-2 14 3 19c1 1 50 54 80 122-53 58-85 129-85 205 0 197 208 357 464 357z m533-312c169-53 289-181 289-331 0-76-32-147-85-205 30-68 79-121 80-122 5-5 6-13 3-19-2-7-9-11-16-11-82 0-149 28-198 56-72-35-157-56-249-56-192 0-357 90-427 219 23-3 46-4 70-4 296 0 536 192 536 428 0 15-1 30-3 45z" horiz-adv-x="1286.1" />

<glyph glyph-name="Icon-awesome-filter" unicode="&#xe908;" d="M953 829h-906c-26 0-47-21-47-47 0-13 5-24 14-33l361-361v-403c0-15 8-29 20-38l0 0 156-109c8-6 17-9 27-9 26 0 47 21 47 47v512l361 361c9 9 14 20 14 33 0 26-21 47-47 47h0z" horiz-adv-x="1000" />

<glyph glyph-name="Icon-ionic-ios-add-circle-outline" unicode="&#xe90f;" d="M718 368h-179v179c0 21-18 38-39 38s-38-17-38-38v0-179h-179c-1 0-2 0-2 0-21 0-37-17-37-37 0-1 0-1 0-2l0 0c0 0 0-1 0-1 0-21 17-37 37-37 1 0 1 0 2 0l0 0h179v-179c0-1 0-1 0-2 0-20 16-37 37-37 0 0 1 0 1 0l0 0c0 0 0 0 0 0 21 0 39 17 39 38 0 1 0 1 0 1v0 179h179c21 0 38 17 38 38s-17 39-38 39v0z m-218 394c239 0 432-194 432-433 0-238-193-432-432-432s-433 194-433 432c0 120 49 228 127 306v0c78 78 186 127 305 127 0 0 1 0 1 0h0z m0 67c-276 0-500-224-500-500s224-500 500-500c276 0 500 224 500 500v0c0 0 0 0 0 0 0 276-224 500-500 500 0 0 0 0 0 0h0z" horiz-adv-x="1000" />

<glyph glyph-name="Icon-material-attach-money" unicode="&#xe910;" d="M296 390c-122 33-162 67-162 120 0 60 55 103 146 103 96 0 132-48 135-117h120c-2 104-75 190-172 211l-2 1v121h-162v-120c-105-23-189-93-189-200 0-129 103-193 254-230 135-33 162-82 162-134 0-38-26-99-146-99-111 0-155 51-161 117h-119c7-122 95-191 199-213v-121h162v120c106 20 190 83 190 197 0 158-132 212-255 244z" horiz-adv-x="550.8" />

<glyph glyph-name="Icon-material-delete" unicode="&#xe911;" d="M634-74c10 0 18 7 18 14v570h-498v-570c0-7 8-14 19-14h461z m0-97h-461c-64 0-115 50-115 111v667h691v-667c0-61-52-111-115-111z m173 834h-807v111h202l57 55h288l58-55h202v-111z" horiz-adv-x="806.6" />

<glyph glyph-name="Icon-metro-shop" unicode="&#xe913;" d="M320 501l50 328h-257l-108-281c-3-9-5-20-5-31 0 0 0 0 0 0v0c0-69 72-125 161-125 82 0 149 47 159 109z m243-109c88 0 160 56 160 125 0 2 0 5 0 7l-32 305h-257l-32-304c0-3 0-6 0-8 0-69 72-125 161-125z m312-66v-247h-625v247c-26-10-57-16-89-16 0 0 0 0 0 0h0c-13 1-25 2-37 4l1 0v-397c0-49 39-88 87-88h701c48 0 87 39 87 88v396c-10-1-23-2-35-3l-1 0c-32 0-62 6-91 17l2-1z m245 222l-108 281h-257l50-327c9-62 77-110 159-110 89 0 161 56 161 125 0 11-2 22-5 32l0-1z" horiz-adv-x="1125" />

<glyph glyph-name="star-half-alt" unicode="&#xf123;" d="M662 316l143 140-198 29-37 5-17 34-89 179v-537l33-17 178-94-34 198-6 37z m252 146l-202-197 48-279q2-19-4-29t-19-11q-9 0-22 7l-251 132-250-132q-13-7-23-7-12 0-19 11t-3 29l48 279-203 197q-18 18-13 33t30 20l280 40 126 254q11 23 27 23 16 0 28-23l125-254 280-40q25-4 31-20t-14-33z" horiz-adv-x="928.6" />
</font>
</defs>
</svg>
